<?xml version="1.0" encoding="UTF-8" standalone="no"?>
<!-- Created with Inkscape (http://www.inkscape.org/) -->
<svg id="svg2" xmlns:rdf="http://www.w3.org/1999/02/22-rdf-syntax-ns#" xmlns="http://www.w3.org/2000/svg" height="275" width="275" version="1.1" xmlns:cc="http://creativecommons.org/ns#" xmlns:dc="http://purl.org/dc/elements/1.1/">
	<metadata id="metadata7">
		<rdf:RDF>
			<cc:Work rdf:about="">
				<dc:format>image/svg+xml</dc:format>
				<dc:type rdf:resource="http://purl.org/dc/dcmitype/StillImage"/>
				<dc:title/>
			</cc:Work>
		</rdf:RDF>
	</metadata>
	<g id="layer1" transform="translate(0,-777.36218)">
		<g id="g3833">
			<rect id="rect2985" ry="15.998" transform="matrix(0.71165393,-0.7025302,0.7025302,0.71165393,0,0)" height="198.38" width="198.38" y="648.83" x="-644.23" fill="#ff6919"/>
			<rect id="rect2985-1" stroke-linejoin="round" ry="14.616" stroke-dasharray="none" stroke-dashoffset="0" transform="matrix(0.71165393,-0.7025302,0.7025302,0.71165393,0,0)" height="181.24" width="181.24" stroke="#000" stroke-linecap="round" stroke-miterlimit="4" y="657.54" x="-635.73" stroke-width="5" fill="#ff6919"/>
			<text id="text3773" stroke-linejoin="round" style="letter-spacing:0px;word-spacing:0px;" stroke-width="2" font-weight="bold" line-height="125%" font-variant="normal" stroke-dasharray="none" font-size="33.84809494000000300px" stroke="#202020" stroke-linecap="round" stroke-miterlimit="4" font-stretch="normal" font-style="normal" y="968.47034" x="82.170853" font-family="Lucida Console" xml:space="preserve" fill="#000000"><tspan id="tspan3775" stroke-linejoin="round" stroke-dasharray="none" font-weight="normal" font-size="152.31634521000001000px" font-style="normal" stroke="#202020" stroke-linecap="round" stroke-miterlimit="4" font-stretch="normal" font-variant="normal" y="968.47034" x="82.170853" font-family="Arial" stroke-width="2">C</tspan></text>
			<path id="path3781" stroke-linejoin="round" d="m92,879.36a5.5,5.5,0,1,1,-11,0,5.5,5.5,0,1,1,11,0z" transform="matrix(1.2857143,0,0,1.2857143,-76.085286,-215.36884)" stroke-dashoffset="0" stroke="#202020" stroke-linecap="round" stroke-miterlimit="4" stroke-dasharray="none" stroke-width="2.33333325" fill="#000"/>
			<path id="path3781-9" stroke-linejoin="round" d="m92,879.36a5.5,5.5,0,1,1,-11,0,5.5,5.5,0,1,1,11,0z" transform="matrix(1.2857143,0,0,1.2857143,127.91466,-215.36978)" stroke-dashoffset="0" stroke="#202020" stroke-linecap="round" stroke-miterlimit="4" stroke-dasharray="none" stroke-width="2.33333325" fill="#000"/>
			<path id="path3781-0" stroke-linejoin="round" d="m92,879.36a5.5,5.5,0,1,1,-11,0,5.5,5.5,0,1,1,11,0z" transform="matrix(1.2857143,0,0,1.2857143,26.715142,-317.36934)" stroke-dashoffset="0" stroke="#202020" stroke-linecap="round" stroke-miterlimit="4" stroke-dasharray="none" stroke-width="2.33333325" fill="#000"/>
			<path id="path3781-7" stroke-linejoin="round" d="m92,879.36a5.5,5.5,0,1,1,-11,0,5.5,5.5,0,1,1,11,0z" transform="matrix(1.2857143,0,0,1.2857143,25.414661,-112.86934)" stroke-dashoffset="0" stroke="#202020" stroke-linecap="round" stroke-miterlimit="4" stroke-dasharray="none" stroke-width="2.33333325" fill="#000"/>
		</g>
	</g>
</svg>
